<?xml version="1.0" encoding="UTF-8" standalone="no"?>
<!-- Created with Inkscape (http://www.inkscape.org/) -->

<svg
   width="50"
   height="50"
   viewBox="0 0 13.229166 13.229167"
   version="1.1"
   id="svg1"
   inkscape:version="1.3 (0e150ed6c4, 2023-07-21)"
   sodipodi:docname="resume.svg"
   xmlns:inkscape="http://www.inkscape.org/namespaces/inkscape"
   xmlns:sodipodi="http://sodipodi.sourceforge.net/DTD/sodipodi-0.dtd"
   xmlns="http://www.w3.org/2000/svg"
   xmlns:svg="http://www.w3.org/2000/svg">
  <sodipodi:namedview
     id="namedview1"
     pagecolor="#ffffff"
     bordercolor="#000000"
     borderopacity="0.25"
     inkscape:showpageshadow="2"
     inkscape:pageopacity="0.0"
     inkscape:pagecheckerboard="0"
     inkscape:deskcolor="#d1d1d1"
     inkscape:document-units="mm"
     inkscape:zoom="4"
     inkscape:cx="115.25"
     inkscape:cy="78.625001"
     inkscape:window-width="1920"
     inkscape:window-height="1027"
     inkscape:window-x="-8"
     inkscape:window-y="-8"
     inkscape:window-maximized="1"
     inkscape:current-layer="layer1" />
  <defs
     id="defs1" />
  <g
     inkscape:label="Layer 1"
     inkscape:groupmode="layer"
     id="layer1">
    <path
       style="fill:none;stroke:#000000;stroke-width:0.115416"
       d="M 1.8868682,1.8982315 H 8.7343498"
       id="path1" />
    <path
       style="fill:none;stroke:#000000;stroke-width:0.115416"
       d="M 6.0970075,10.477676 H 12.94449"
       id="path1-2" />
    <path
       style="fill:none;stroke:#000000;stroke-width:0.10604"
       d="m 12.896431,10.458535 c -0.290001,1.473466 -1.180719,1.490801 -1.180719,1.490801"
       id="path2" />
    <path
       style="fill:none;stroke:#000000;stroke-width:0.108092"
       d="m 6.1603515,10.440117 c -0.289725,1.532512 -1.1795934,1.550541 -1.1795934,1.550541"
       id="path2-5" />
    <path
       style="fill:none;stroke:#000000;stroke-width:0.10604"
       d="M 3.053228,3.387002 C 2.7632267,1.9135372 1.872509,1.8962008 1.872509,1.8962008"
       id="path2-5-3" />
    <path
       style="fill:none;stroke:#000000;stroke-width:0.107583"
       d="m 3.8095807,10.441889 c 0.2897937,1.517749 1.1798726,1.535604 1.1798726,1.535604"
       id="path2-5-3-5" />
    <path
       style="fill:none;stroke:#000000;stroke-width:0.10604"
       d="M 0.71841849,3.3890092 C 1.0084199,1.9155444 1.8991376,1.8982098 1.8991376,1.8982098"
       id="path2-5-9" />
    <path
       style="fill:none;stroke:#000000;stroke-width:0.115416"
       d="M 3.0318928,3.3547849 3.8105927,10.500501"
       id="path3" />
    <path
       style="fill:none;stroke:#000000;stroke-width:0.115416"
       d="M 8.7081146,1.8494429 9.8837987,10.491484"
       id="path3-3"
       sodipodi:nodetypes="cc" />
    <path
       style="fill:none;stroke:#000000;stroke-width:0.115416"
       d="m 11.750276,11.951019 -6.779268,0.03054"
       id="path4" />
    <path
       style="fill:none;stroke:#000000;stroke-width:0.115416"
       d="M 0.7110624,3.3700543 H 3.0318928"
       id="path5" />
    <path
       style="fill:#000000;stroke:#000000;stroke-width:0.115416"
       id="path9"
       d="m 3.7116691,3.090462 c 0.078834,0.078102 0.1882535,0.1957439 0.3029923,0.157921 0.039783,-0.019584 0.068684,-0.058861 0.1088793,-0.077378 0.00814,-0.0038 0.017342,-0.00452 0.026013,-0.00669 0.071208,0.016094 0.207569,0.096926 -0.086134,-0.061555 -0.013635,-0.00741 0.026492,0.016094 0.039338,0.024792 0.017631,0.011935 0.046166,0.033997 0.063546,0.047234 0.039805,0.028807 0.071188,0.06698 0.1085538,0.098409 0.2209281,0.1346298 0.2021653,0.171158 0.3500282,0.03217 0.046015,-0.044033 0.095599,-0.083942 0.152581,-0.1129118 0.011736,-0.00597 0.023253,-0.01302 0.036013,-0.016275 0.010977,-0.00289 0.022624,-0.00111 0.033935,-0.00166 0.011483,0.00235 0.023255,0.00344 0.034449,0.00687 0.046617,0.014467 0.089069,0.043056 0.1329118,0.063743 0.053201,0.0251 0.055512,0.02481 0.1101162,0.045642 0.1006495,0.03311 0.2066224,0.043798 0.3118209,0.050543 0.085319,0.00904 0.158572,0.06029 0.2368035,0.092243 0.014666,0.00106 0.029342,0.00452 0.043979,0.00307 0.088284,-0.00796 0.1759916,-0.087234 0.2449966,-0.1374869 0.082264,-0.058572 0.148968,-0.027486 0.2387455,-0.0094 0.1157654,0.031356 0.2288652,0.011212 0.3429492,-0.016094 0.089351,-0.020886 0.1772358,-0.063707 0.2712005,-0.055895 0.046148,0.0038 0.067035,0.013924 0.1108141,0.028861 0.070271,0.019006 0.125968,0.076998 0.1987657,0.087975 0.036998,0.00561 0.068771,-0.00127 0.1053349,-0.00597 0.079928,-0.017179 0.039819,-0.00832 0.1203621,-0.026474 0,0 -0.1795666,-0.1246117 -0.1795666,-0.1246117 v 0 c -0.080326,0.01736 -0.040253,0.00958 -0.1202175,0.0234 -0.041212,0.00271 -0.060687,0.00741 -0.1009226,-0.00217 C 6.879974,3.1821278 6.823265,3.1292705 6.7529916,3.1126339 6.7054508,3.0990714 6.6865357,3.0903011 6.6369858,3.0894331 6.5435225,3.0877947 6.4575367,3.1334839 6.3675533,3.151115 6.2481532,3.1752923 6.1438637,3.1870645 6.0244788,3.1558167 5.9308492,3.1364133 5.8581889,3.1157623 5.7765971,3.1814949 5.7097089,3.2318748 5.6291209,3.3062512 5.5391969,3.303593 5.525526,3.3032006 5.5123397,3.2983488 5.498911,3.2956364 5.4205021,3.2614048 5.3448237,3.2127789 5.2571414,3.2090718 5.1539005,3.2029235 5.0501826,3.1913503 4.9524629,3.1553103 4.8957629,3.1324893 4.8991806,3.1349667 4.8435095,3.1080588 4.7861766,3.0803372 4.7307369,3.0435016 4.6645758,3.0452376 c -0.012405,0.00271 -0.025259,0.00362 -0.037194,0.00796 -0.073731,0.026384 -0.1322464,0.086745 -0.1912269,0.1351542 -0.026562,0.023237 -0.054818,0.052749 -0.088581,0.065932 -0.026438,0.010307 -0.041702,-0.00344 -0.038477,-0.00139 0.058062,0.036058 0.1178702,0.069241 0.1768053,0.1038521 -0.042516,-0.026744 -0.070995,-0.070072 -0.1119751,-0.09933 -0.034015,-0.02566 -0.066662,-0.053544 -0.1035718,-0.0751 -0.076653,-0.044774 -0.1528939,-0.090344 -0.2311882,-0.1321705 -0.012224,-0.00651 -0.02596,-0.010308 -0.039642,-0.012478 -0.011971,-0.00199 -0.024266,1.899e-4 -0.036398,2.767e-4 -0.050002,0.020525 -0.086456,0.058083 -0.1350258,0.080669 -0.0055,3.002e-4 -0.011013,0.00155 -0.016474,9.24e-4 -0.0055,-6.238e-4 -0.02066,-0.00759 -0.015949,-0.00452 0.3292388,0.2037042 0.1862618,0.1204887 0.1258015,0.065968 z" />
    <path
       style="fill:#000000;stroke:#000000;stroke-width:0.115416"
       id="path10"
       d="m 3.9516565,4.3463799 c -0.00646,-0.00597 0.055904,0.03038 0.0421,0.022477 -0.5572516,-0.3190355 0.4800755,0.2789432 -0.077441,-0.042297 0.1737185,0.1009045 0.2240612,0.1668903 0.3991533,0.1300728 0.071554,-0.022767 0.1349987,-0.064575 0.2044384,-0.09302 0.06614,-0.022604 0.1098937,0.00687 0.1688578,0.034846 0.013219,0.00651 0.026477,0.01302 0.039673,0.019602 0.013888,0.00687 0.027848,0.013743 0.041579,0.020977 0.013508,0.00705 0.053456,0.029602 0.040138,0.022116 -0.050789,-0.028535 -0.1007635,-0.05859 -0.1525485,-0.085281 -0.013219,-0.00687 0.024402,0.016998 0.036577,0.025516 0.012315,0.00868 0.024586,0.01736 0.036881,0.025931 0.094988,0.06472 0.1954297,0.1235447 0.298912,0.1728939 0.033425,0.015913 0.1087129,-0.014467 0.1390385,-0.024864 0.099235,-0.042785 0.1890334,-0.1031469 0.2916052,-0.1383731 0.04353,-0.011212 0.085469,0.00217 0.1279101,0.011392 0,0 -0.1798235,-0.1363839 -0.1798235,-0.1363839 v 0 c -0.045062,-0.00904 -0.089436,-0.017722 -0.1338432,-4.34e-5 -0.098986,0.040452 -0.1865932,0.1035809 -0.2876451,0.1393857 -0.034912,0.0094 -0.059266,0.019349 -0.095396,0.017541 -0.012586,-6.456e-4 -0.047244,-0.015009 -0.037022,-0.00759 0.04966,0.035769 0.1050565,0.062803 0.1574943,0.09434 0.012224,0.00741 -0.024752,-0.014105 -0.036825,-0.021754 -0.012839,-0.00814 -0.025241,-0.016818 -0.037861,-0.025154 C 4.8033949,4.4146911 4.6629222,4.3293201 4.5143759,4.2598027 4.4492618,4.2303631 4.4028981,4.2087717 4.333428,4.2392963 c -0.067042,0.02991 -0.129957,0.070995 -0.2016275,0.08897 -0.033727,0.00542 -0.067487,0.010127 -0.101702,0.00488 -0.07846,-0.012114 -0.2131248,-0.1087145 0.09553,0.0738 -0.073684,-0.042604 -0.1471396,-0.085588 -0.2210516,-0.1277945 -0.0541,-0.030886 0.1075031,0.062984 0.16161,0.093852 0.00991,0.00561 -0.019179,-0.012477 -0.029022,-0.018192 -0.072805,-0.042821 -0.1457872,-0.085335 -0.218907,-0.1276135 -0.011863,-0.00687 -0.032438,-0.017179 -0.045224,-0.02378 z" />
    <path
       style="fill:#000000;stroke:#000000;stroke-width:0.115416"
       id="path11"
       d="m 4.4530097,5.2986962 c 0.1401054,0.04047 0.2871114,0.029132 0.4301408,0.01519 0.090123,-0.00995 0.1787819,-0.029114 0.2675963,-0.046763 0.036805,-0.00723 0.089608,-0.02038 0.12859,-0.018535 0.020749,9.928e-4 0.040939,0.00705 0.061407,0.010669 0.086337,0.020995 0.1608722,0.070199 0.2415573,0.1047924 0.054646,0.023436 0.058885,0.022459 0.1165719,0.038318 0.023331,0.00289 0.046508,0.0076 0.069995,0.00868 0.106617,0.00488 0.2144252,-0.016818 0.3188524,-0.03425 0.5445808,-0.091393 -0.2570053,0.040995 0.2829196,-0.047884 0.1418487,-0.021103 0.2858865,-0.035805 0.4292199,-0.021682 0.045732,0.00452 0.096944,0.014467 0.1423513,0.022658 0.1285539,0.033978 0.2273824,0.00868 0.3487518,-0.035497 0.071176,-0.029783 0.1424779,-0.057722 0.219131,-0.068409 0.049729,-0.0038 0.099476,-0.00579 0.149223,-0.00958 0,0 -0.1787168,-0.1280295 -0.1787168,-0.1280295 v 0 c -0.051447,0.00307 -0.1029479,0.00416 -0.1543043,0.00832 -0.076185,0.013562 -0.1461127,0.044792 -0.2170587,0.074919 -0.1194218,0.042658 -0.2157585,0.057794 -0.3409036,0.027378 -0.050235,-0.00778 -0.08944,-0.014828 -0.1407221,-0.018246 -0.1416388,-0.0094 -0.2831133,0.00922 -0.4226319,0.03179 -0.080546,0.013562 -0.2041104,0.034593 -0.2845747,0.046221 -0.1065302,0.015371 -0.2170247,0.032333 -0.3250764,0.022134 -0.023423,-0.00217 -0.04636,-0.00796 -0.069541,-0.012116 -0.058702,-0.018252 -0.058809,-0.016461 -0.1144652,-0.041055 -0.080706,-0.035769 -0.157478,-0.081953 -0.2453228,-0.099259 -0.021745,-0.00235 -0.043374,-0.00705 -0.065237,-0.00687 -0.035165,2.766e-4 -0.093523,0.015732 -0.1262211,0.022767 -0.087082,0.018969 -0.1743822,0.037866 -0.2631988,0.04689 -0.1450675,0.011935 -0.2982896,0.0217 -0.4360337,-0.034919 z" />
    <path
       style="fill:#000000;stroke:#000000;stroke-width:0.115416"
       id="path12"
       d="m 7.9088802,9.7999697 c 0.067559,0.00326 0.1331108,-0.00723 0.1992828,-0.019204 0.088355,-0.030705 0.1612122,-0.027288 0.2511348,-0.00597 0.094611,0.015732 0.1850947,0.058427 0.2812867,0.06548 0.017179,0.00127 0.034394,1.826e-4 0.051592,2.531e-4 0.1200909,-0.014647 0.2317007,-0.062242 0.3441496,-0.1038159 0.089241,-0.036709 0.1460946,-0.022369 0.2319792,0.012658 0.049657,0.02613 0.085606,0.032043 0.1396027,0.018137 0,0 -0.1856101,-0.1292049 -0.1856101,-0.1292049 v 0 C 9.1749379,9.645173 9.1350819,9.631793 9.0921708,9.611594 9.0027848,9.5817049 8.942441,9.5730249 8.8535962,9.6139473 8.7438851,9.6573109 8.6331107,9.7026637 8.5139114,9.7102768 8.4008368,9.7041285 8.2940263,9.6669493 8.1841742,9.6417593 8.085747,9.6216508 8.0215696,9.6235133 7.9257808,9.6531518 7.8588366,9.6645442 7.7920009,9.6706925 7.7240441,9.6658101 Z" />
    <path
       style="fill:#000000;stroke:#000000;stroke-width:0.115416"
       d="m 7.3285001,6.9473154 c 0.080398,0.012297 0.097523,-0.081158 0.1511579,-0.107957 0.00651,-0.00326 0.016456,0.00506 0.021591,0 0.00506,-0.00506 -0.00506,-0.016456 0,-0.021591 0.0094,-0.0094 0.072442,-0.033888 0.086366,-0.043183 0.023816,-0.015913 0.039277,-0.052026 0.064774,-0.064774 0.00651,-0.00326 0.016456,0.00506 0.021591,0 0.00506,-0.00506 -0.00506,-0.016456 0,-0.021591 0.012116,-0.012116 0.064214,-0.031555 0.086366,-0.064774 0.022351,-0.033544 0.04642,-0.087993 0.086366,-0.107957 0.020362,-0.010127 0.045841,-0.00904 0.064774,-0.021591 0.085823,-0.057215 0.046022,-0.047451 0.086366,-0.107957 0.00832,-0.012478 0.104051,-0.08246 0.1295665,-0.107957"
       id="path13" />
    <path
       style="fill:#000000;stroke:#000000;stroke-width:0.115416"
       d="m 7.9331063,6.4938616 c -0.00615,-0.08765 -0.0047,-0.1587167 0.021591,-0.2375253 0.00452,-0.013743 -0.00651,-0.030308 0,-0.043183 0.044937,-0.089856 -0.0015,0.023092 0.043183,-0.021591 0.030958,-0.030958 0.1024778,-0.248142 0.1295665,-0.3023031 0.061555,-0.1230927 0.1396208,-0.2394277 0.1943389,-0.3670827 0.02434,-0.0568 0.052749,-0.1598921 0.086366,-0.2159303 0.010488,-0.017541 0.034087,-0.024973 0.043183,-0.043183 0.013201,-0.026546 0.00832,-0.059819 0.021591,-0.086366 0.00904,-0.01821 0.032713,-0.025733 0.043183,-0.043183 0.011754,-0.019512 0.00958,-0.045479 0.021591,-0.064774 0.024431,-0.039078 0.063997,-0.067686 0.086366,-0.107957 0.014467,-0.02595 0.00995,-0.059096 0.021591,-0.086366 0.064828,-0.1512664 0.016637,0.00814 0.086366,-0.107957 0.011754,-0.019512 0.00995,-0.045262 0.021591,-0.064774 0.037921,-0.063219 0.1127671,-0.1087708 0.1511579,-0.1727493 0.011754,-0.019512 0.00796,-0.046564 0.021591,-0.064774 0.00958,-0.012839 0.033526,-0.00868 0.043183,-0.021591 0.1053711,-0.1405069 -0.077197,0.012477 0.064774,-0.1295665 0.047125,-0.047125 0.1092951,-0.073743 0.1511579,-0.1295665 0.019313,-0.025751 0.020416,-0.063617 0.043183,-0.086366 0.011392,-0.011392 0.031808,-0.010127 0.043183,-0.021591 0.011392,-0.011392 0.010127,-0.031808 0.021591,-0.043183 0.011392,-0.011392 0.031808,-0.010127 0.043183,-0.021591 0.011392,-0.011392 0.011935,-0.030308 0.021591,-0.043183 0.069964,-0.093292 0.012839,-0.00344 0.086366,-0.064774 0.064702,-0.053906 0.1234724,-0.1471072 0.1943388,-0.194337 0.018933,-0.012658 0.045841,-0.00904 0.064774,-0.021591 0.083436,-0.055624 0.1455694,-0.148355 0.2375254,-0.1943371 0.1445573,-0.072279 0.2909503,-0.1529843 0.4318623,-0.2375235 0.06546,-0.039277 0.145389,-0.058156 0.21593,-0.086366 0.116981,-0.046781 -0.0385,0.010127 0.08637,-0.064774 0.0099,-0.00597 0.119693,-0.03727 0.129566,-0.043183 0.01754,-0.010488 0.02573,-0.032713 0.04318,-0.043183 0.02387,-0.014286 0.285131,-0.1454255 0.302303,-0.1511579 0.01374,-0.00452 0.02982,0.00542 0.04318,0 0.04483,-0.017902 0.08637,-0.043183 0.129566,-0.064774 0.05331,-0.026655 0.160164,-0.1511579 0.215931,-0.1511579 0.01447,0 0,0.028789 0,0.043183 0,0.043183 0,0.086366 0,0.1295665 0,0.1284815 0.02787,0.4067863 0,0.5182352 -0.004,0.015552 -0.01895,0.027306 -0.02159,0.043183 -0.01428,0.085841 0.0033,0.1507239 -0.02159,0.2375253 -0.05253,0.183885 -0.07457,0.3827645 -0.151158,0.5614198 -0.03604,0.084087 -0.09743,0.1518451 -0.129566,0.2375235 -0.08099,0.2159845 -0.196998,0.4048225 -0.34549,0.5830148 -0.08114,0.09736 -0.148029,0.2128091 -0.237523,0.3023031 -0.01835,0.018355 -0.04642,0.024828 -0.06478,0.043183 -0.01835,0.018355 -0.02483,0.04642 -0.04318,0.064774 -0.09346,0.093454 -0.220395,0.1570169 -0.323897,0.2375253 -0.03213,0.024991 -0.05344,0.062423 -0.08636,0.086366 C 10.033097,5.796976 9.9412167,5.838947 9.8548497,5.8893269 9.6693936,5.997519 9.3181428,6.1819302 9.0990913,6.2132232 c -0.028499,0.00416 -0.057758,-0.00326 -0.086366,0 -0.064431,-0.013924 -0.1139787,0.034792 -0.1727492,0.043183 -0.028499,0.00416 -0.057866,-0.00416 -0.086366,0 -0.078662,0.011212 -0.162695,0.046076 -0.2375235,0.064774 -0.039403,0.00976 -0.091013,-0.012839 -0.1295665,0 -0.063129,0.021049 -0.1274146,0.029801 -0.1943371,0.043183 -0.014105,0.00289 -0.030308,-0.00651 -0.043183,0 -0.00651,0.00326 0.00506,0.016456 0,0.021591 -0.016817,0.016817 -0.064991,0.014467 -0.086366,0.021591 -0.049241,0.016456 -0.085045,0.059675 -0.1295665,0.086366 z"
       id="path14" />
    <path
       style="fill:#ffffff;stroke:#ffffff;stroke-width:0.115416"
       d="m 10.524279,3.4060491 c 0.05723,0.027722 0.136999,0.069982 0.172749,0.1295664 0.01175,0.019512 0.009,0.045841 0.02159,0.064774 0.004,0.00597 0.01646,-0.00506 0.02159,0 0.01013,0.010127 -0.01013,0.033002 0,0.043183 0.0051,0.00506 0.01447,0 0.02159,0"
       id="path15" />
    <path
       style="fill:#ffffff;stroke:#ffffff;stroke-width:0.115416"
       d="m 10.956141,3.7083522 c 0.155263,-0.033165 0.266777,0.064774 0.410268,0.064774"
       id="path16" />
    <path
       style="fill:#ffffff;stroke:#ffffff;stroke-width:0.115416"
       d="m 8.0842588,6.3427091 c 0.014467,-0.028789 0.023074,-0.06123 0.043183,-0.086366 0.010127,-0.012477 0.031808,-0.010127 0.043183,-0.021591 0.067451,-0.06745 0.1116279,-0.1857728 0.1727493,-0.2591167 0.010307,-0.012297 0.029801,-0.012658 0.043183,-0.021591 0.033237,-0.022152 0.052713,-0.074322 0.064774,-0.086366 0.011392,-0.011392 0.034268,-0.00814 0.043183,-0.021591 0.00796,-0.011935 -0.00796,-0.031212 0,-0.043183 0.00886,-0.013382 0.029801,-0.012658 0.043183,-0.021591 0.048047,-0.032025 0.070832,-0.092423 0.107957,-0.1295664 C 8.6570461,5.640355 8.6774621,5.64162 8.6888371,5.630156 8.7002291,5.618764 8.6989641,5.598348 8.7104281,5.586973 8.7548401,5.542561 8.823593,5.514387 8.861586,5.4574065 8.893828,5.4090515 8.921749,5.4103535 8.947952,5.3710405 8.956812,5.3576585 8.958079,5.3392315 8.969543,5.3278575 8.980935,5.3164645 9.001351,5.3177305 9.012726,5.3062665 9.024118,5.2948745 9.024661,5.2759585 9.034317,5.2630835 9.081098,5.2007145 9.147283,5.156772 9.2070662,5.1119256 c 0.1553171,-0.1164923 -0.04557,0.023978 0.064774,-0.086366 0.011393,-0.011392 0.030308,-0.011935 0.043183,-0.021591 0.060886,-0.04566 0.1031107,-0.1247021 0.1511579,-0.1727493 0.011392,-0.011392 0.031808,-0.010127 0.043183,-0.021591 0.044286,-0.044286 0.056347,-0.09085 0.107957,-0.1295665 0.050796,-0.038083 0.1290426,-0.085859 0.1727496,-0.1295665 0.01139,-0.011392 0.01013,-0.031808 0.02159,-0.043183 0.01139,-0.011392 0.03031,-0.011935 0.04318,-0.021591 0.05591,-0.041935 0.09308,-0.1124235 0.1511583,-0.1511579 0.01338,-0.00886 0.03181,-0.010127 0.04318,-0.021591 0.01139,-0.011392 0.01013,-0.031808 0.02159,-0.043183 0.03313,-0.033129 0.08984,-0.059892 0.129567,-0.086366 0.01302,-0.00868 0.04228,-0.064322 0.04318,-0.064774 0.01284,-0.00651 0.03121,0.00796 0.04318,0 0.0132,-0.00868 0.07148,-0.098029 0.08637,-0.107957 0.01193,-0.00796 0.03121,0.00796 0.04318,0 0.01338,-0.00886 0.01013,-0.031808 0.02159,-0.043183 0.02926,-0.029259 0.09855,-0.070868 0.129567,-0.086366 0.02891,-0.014467 0.02993,-0.051519 0.04318,-0.064774 0.0051,-0.00506 0.01646,0.00506 0.02159,0 0.0051,-0.00506 -0.0051,-0.016456 0,-0.021591 0.0051,-0.00506 0.01646,0.00506 0.02159,0 0.0051,-0.00506 0,-0.014467 0,-0.021591 0.01447,-0.00723 0.0298,-0.012658 0.04318,-0.021591 0.04277,0.00217 0.01013,-0.031808 0.02159,-0.043183 0.0051,-0.00506 0.01646,0.00506 0.02159,0 0.0051,-0.00506 -0.0051,-0.016456 0,-0.021591 0.0025,-0.00253 0.118156,-0.078771 0.129566,-0.086366 0.0072,-0.00723 0.01447,-0.014467 0.02159,-0.021591 0,-0.00723 -0.0051,-0.016456 0,-0.021591 0.01139,-0.011392 0.03181,-0.010127 0.04318,-0.021591 0.0051,-0.00506 -0.0051,-0.016456 0,-0.021591 0.02631,-0.026311 0.08165,-0.038463 0.107957,-0.064774 0.01808,-0.018083 0.04494,-0.076438 0.06477,-0.086366 0.05389,-0.026944 0.163527,-0.1111215 0.194337,-0.1727492 0.01982,-0.039638 0.05412,-0.097306 0.08637,-0.1295665"
       id="path17" />
    <path
       style="fill:#ffffff;stroke:#ffffff;stroke-width:0.115416"
       d="m 10.934548,3.686759 c -0.05758,0 -0.115154,0 -0.172749,0"
       id="path18" />
    <path
       style="fill:#ffffff;stroke:#ffffff;stroke-width:0.115416"
       d="m 10.200383,3.7731318 c 0.156564,0.3131241 -0.04552,-0.068282 0.08636,0.1295484 0.008,0.011935 -0.01013,0.033002 0,0.043183 0.01628,0.016275 0.04318,0.0094 0.04318,0.043183"
       id="path19" />
    <path
       style="fill:#ffffff;stroke:#ffffff;stroke-width:0.115416"
       d="m 10.567465,3.9242824 c 0.07841,-8.77e-4 0.100652,0.1295665 0.17275,0.1295665"
       id="path20" />
    <path
       style="fill:#ffffff;stroke:#ffffff;stroke-width:0.115416"
       d="m 10.956141,3.686759 0.431861,0.107957"
       id="path21" />
    <path
       style="fill:#ffffff;stroke:#ffffff;stroke-width:0.115416"
       d="M 10.006044,4.2913652 9.8764947,3.9026892"
       id="path22" />
    <path
       style="fill:#ffffff;stroke:#ffffff;stroke-width:0.115416"
       d="m 10.200383,4.2481788 0.259116,0.3023031"
       id="path23" />
    <path
       style="fill:#ffffff;stroke:#ffffff;stroke-width:0.115416"
       d="M 9.682149,4.7016343 9.5093997,4.3993312"
       id="path24" />
    <path
       style="fill:#ffffff;stroke:#ffffff;stroke-width:0.115416"
       d="M 9.4662169,5.0039374 10.027637,5.1550953"
       id="path25" />
    <path
       style="fill:#ffffff;stroke:#ffffff;stroke-width:0.115416"
       d="M 8.9479835,5.3710202 8.9695749,4.8959714"
       id="path26" />
    <path
       style="fill:#ffffff;stroke:#ffffff;stroke-width:0.115416"
       d="M 8.5809008,5.8028825 9.7901137,5.6301333"
       id="path27" />
    <path
       style="fill:#ffffff;stroke:#ffffff;stroke-width:0.115416"
       d="M 9.8548927,4.5936683 10.437906,4.9175646"
       id="path28" />
    <path
       style="fill:#ffffff;stroke:#ffffff;stroke-width:0.115416"
       d="m 8.3217823,5.9972196 c 0.075787,-0.058029 0.069819,-0.1396569 0.107975,-0.2159303"
       id="path29" />
    <path
       style="fill:#ffffff;stroke:#ffffff;stroke-width:0.115416"
       d="M 8.6456786,5.5869505 8.66727,5.1334967"
       id="path30" />
    <path
       style="fill:#ffffff;stroke:#ffffff;stroke-width:0.115416"
       d="M 8.3649687,6.040406 9.0127613,6.061997"
       id="path31" />
    <path
       style="fill:#ffffff;stroke:#ffffff;stroke-width:0.115416"
       d="m 9.1207274,5.3710202 0.4750487,0.064774"
       id="path32" />
    <path
       style="fill:#ffffff;stroke:#ffffff;stroke-width:0.115416"
       d="m 9.3150644,5.0471239 c -0.00723,-0.028789 -0.014467,-0.057577 0,0 z"
       id="path33" />
    <path
       style="fill:#ffffff;stroke:#ffffff;stroke-width:0.115416"
       d="M 9.1639138,4.4425176 9.2718889,4.960751"
       id="path34" />
    <path
       style="fill:#c99868;fill-opacity:1;stroke:#ffffff;stroke-width:0.0408058"
       d="M 0.82121406,3.2279055 C 0.90768816,2.8967217 1.0548965,2.5809465 1.2182382,2.376255 1.4159221,2.1285271 1.7192075,1.9564723 1.9243108,1.9756966 c 0.2413334,0.022622 0.5756014,0.2739431 0.747219,0.5618031 0.095389,0.1600006 0.2057294,0.4216743 0.259254,0.6148305 l 0.043382,0.1565467 H 1.8871183 0.80007136 Z"
       id="path35" />
    <path
       style="fill:#c99868;fill-opacity:1;stroke:#ffffff;stroke-width:0.0408058"
       d="M 4.9277127,11.901399 C 4.7577032,11.868806 4.593227,11.770728 4.4242293,11.601166 4.1741983,11.350305 4.0215835,11.049582 3.9143901,10.59655 3.8775294,10.440762 3.7577507,9.4002485 3.4843663,6.8609443 3.2759538,4.9251234 3.0875081,3.263535 3.0655982,3.1685238 3.0145535,2.9471776 2.913915,2.6878258 2.8105566,2.51127 2.7203405,2.3571627 2.5155266,2.1257423 2.3858411,2.0313821 l -0.084214,-0.061266 h 3.1750213 3.1750209 l 0.012116,0.070181 c 0.00669,0.03859 0.077306,0.5526006 0.1570531,1.1422302 0.1406334,1.0397019 0.1439245,1.0742355 0.1085175,1.1444328 -0.055425,0.1099281 -0.082098,0.1496028 -0.1702537,0.2532108 -0.044539,0.052333 -0.080977,0.106221 -0.080977,0.1197111 0,0.013562 -0.019168,0.040958 -0.042586,0.061013 -0.023418,0.020054 -0.049259,0.063508 -0.057414,0.096565 -0.00814,0.033056 -0.035154,0.089259 -0.060018,0.1248829 -0.06566,0.094051 -0.09774,0.146836 -0.1115737,0.1835414 -0.00669,0.017902 -0.021591,0.046962 -0.033038,0.064774 -0.011392,0.017902 -0.032423,0.061537 -0.046619,0.097161 C 8.3127714,5.3634433 8.2494077,5.4946192 8.186261,5.6193267 8.1231143,5.7440288 8.0477975,5.9031505 8.0189186,5.9729338 7.9900396,6.0427171 7.9515404,6.1107282 7.9334029,6.1240917 7.9152473,6.1374733 7.8897138,6.2092638 7.8766396,6.2836945 7.8547407,6.4083423 7.842408,6.4294635 7.7202918,6.5512253 7.6473801,6.623938 7.5625335,6.6990739 7.5317613,6.718206 7.3983973,6.8010996 7.3177948,6.8912265 7.3177948,6.9574546 c 0,0.083237 0.040362,0.084847 0.1341958,0.00542 0.039006,-0.033038 0.1098015,-0.088626 0.1573062,-0.1235267 0.047505,-0.034901 0.1276135,-0.1050456 0.1780115,-0.1558595 0.050398,-0.050814 0.099169,-0.092405 0.1083548,-0.092405 0.00922,0 0.052279,-0.024177 0.095751,-0.053707 0.1068539,-0.072622 0.2470931,-0.1176857 0.4338587,-0.139458 0.085642,-0.00995 0.1830567,-0.028897 0.2164909,-0.042044 0.033436,-0.013201 0.089168,-0.023888 0.1238521,-0.023888 0.034684,0 0.1045031,-0.00922 0.1551362,-0.020362 0.1412302,-0.031248 0.3188077,-0.05944 0.3188077,-0.050633 0,0.00434 0.1263296,0.9354754 0.2807099,2.0691903 0.1543948,1.1337148 0.2807121,2.0661613 0.2807121,2.0721033 0,0.006 -0.8344121,0.01085 -1.8542477,0.01085 H 6.0924174 l -0.013255,0.08295 c -0.051792,0.323887 -0.2605549,0.810822 -0.4388796,1.023677 -0.1625178,0.193986 -0.3926526,0.351035 -0.5682516,0.387788 -0.029691,0.0061 -0.09463,0.0034 -0.1443098,-0.006 z M 8.9644881,9.8366172 c 0.1648831,-0.056546 0.1695305,-0.056908 0.2807099,-0.021989 0.096637,0.030344 0.1284634,0.031555 0.2192015,0.00832 L 9.5705482,9.795731 9.4264066,9.6928735 C 9.278992,9.5876832 9.1117147,9.5277011 8.9657304,9.5277011 c -0.042514,0 -0.1446479,0.024286 -0.2269611,0.053979 C 8.5655499,9.6441572 8.5029439,9.6471952 8.3123428,9.6022583 8.2027221,9.5764173 8.1033836,9.5726199 7.8422253,9.5843559 l -0.331126,0.014828 0.1881599,0.1370711 c 0.1034904,0.075389 0.2032973,0.1371433 0.2217983,0.1372157 0.018499,6.15e-5 0.1065103,-0.010488 0.1955866,-0.023454 0.1424056,-0.02076 0.1827945,-0.018246 0.334692,0.020832 0.2002955,0.051519 0.2787714,0.046311 0.5131466,-0.034069 z M 6.2140576,5.4259951 c 0.3010031,-0.050651 0.4400087,-0.057197 0.7278642,-0.03425 0.1981183,0.015732 0.2316356,0.012839 0.3670809,-0.03293 0.08199,-0.027667 0.2360226,-0.060543 0.3423141,-0.073038 L 7.8445743,5.2630469 7.6729101,5.1377481 C 7.5021861,5.0131364 7.5005948,5.0125216 7.382484,5.0254511 7.3171673,5.0326844 7.1935321,5.0634621 7.1077452,5.0940409 6.9596253,5.1468439 6.9411442,5.1485619 6.7406625,5.1283448 6.5211042,5.1061928 6.3519363,5.1167715 6.0005254,5.1749634 5.6875754,5.2267177 5.5714648,5.2205513 5.4008429,5.143155 5.206274,5.0548906 5.1123771,5.0452522 4.8855205,5.0902615 c -0.1344019,0.026673 -0.2515083,0.034774 -0.3994519,0.027649 -0.2006651,-0.00958 -0.2103909,-0.00814 -0.2356188,0.039096 -0.023318,0.043563 -0.019224,0.055407 0.035944,0.1038702 0.1174453,0.1032011 0.1993371,0.1292952 0.4005599,0.1275954 0.1029316,-8.68e-4 0.2837077,-0.018535 0.4017239,-0.039259 l 0.2145751,-0.037686 0.1704925,0.077867 c 0.20661,0.094358 0.3537915,0.1016278 0.7403107,0.036582 z M 5.308949,4.5834332 c 0.1095845,-0.051121 0.2010346,-0.080796 0.2280582,-0.074015 0.033597,0.0085 0.051666,-0.00307 0.070774,-0.044991 0.014105,-0.030977 0.02566,-0.059892 0.02566,-0.064268 0,-0.00434 -0.047458,-0.042785 -0.1054598,-0.085353 -0.1370836,-0.1006333 -0.2159062,-0.1009769 -0.4127738,-0.00181 -0.082541,0.041573 -0.1636118,0.07557 -0.1801598,0.07557 -0.016546,0 -0.1333766,-0.053436 -0.2596198,-0.1187708 C 4.5491856,4.2044806 4.4274098,4.1510265 4.4048167,4.1510265 c -0.022593,0 -0.093056,0.024195 -0.1565864,0.05378 -0.1445847,0.067306 -0.22172,0.067215 -0.3314389,-3.544e-4 -0.1085845,-0.066872 -0.1351831,-0.0668 -0.1658378,4.755e-4 -0.03206,0.070362 0.00222,0.1087165 0.2060465,0.2304638 0.1320005,0.078843 0.1711778,0.092008 0.2728905,0.09161 0.079581,-3.002e-4 0.1487546,-0.016094 0.2096724,-0.047848 0.05,-0.026076 0.1067743,-0.047414 0.1261632,-0.047414 0.019389,0 0.1234779,0.053436 0.2313086,0.1187527 0.1259336,0.076275 0.2198253,0.1186804 0.2625124,0.1185357 0.036552,-1.284e-4 0.1487817,-0.038644 0.2494004,-0.085588 z M 5.8342513,3.4676279 c 0.038007,-0.019584 0.099418,-0.058626 0.1364653,-0.086781 0.065217,-0.049566 0.072302,-0.050344 0.2227227,-0.024557 0.1358558,0.023291 0.177554,0.0217 0.3321115,-0.012658 0.2943272,-0.065461 0.3042314,-0.06557 0.433183,-0.00452 0.065317,0.030904 0.156619,0.056185 0.2028796,0.056185 0.1123693,0 0.3288349,-0.044485 0.3288349,-0.067595 0,-0.010127 -0.067378,-0.063237 -0.1497293,-0.1179932 -0.1411579,-0.09387 -0.1556787,-0.098753 -0.2537189,-0.085263 -0.086203,0.011935 -0.125552,0.00434 -0.2300605,-0.043418 -0.1413206,-0.064702 -0.239468,-0.064937 -0.5249942,-0.00121 -0.1193711,0.026637 -0.180082,0.029602 -0.267463,0.01302 C 5.8760963,3.0571056 5.8224399,3.0652431 5.7074879,3.1469794 5.5905002,3.2301442 5.5337983,3.2391316 5.4380927,3.1896378 5.403089,3.1715364 5.3010108,3.1474134 5.2112534,3.136039 5.1214953,3.1246466 4.9878603,3.089764 4.9142855,3.05848 4.6754159,2.9569425 4.5933563,2.9609208 4.4532927,3.0808128 L 4.3647535,3.1565997 4.1952773,3.060017 C 4.0056086,2.9519334 3.9663063,2.945315 3.8742622,3.0059843 c -0.03619,0.023852 -0.083688,0.03736 -0.109042,0.030995 -0.032695,-0.00814 -0.05298,0.0038 -0.074526,0.044033 -0.026839,0.050145 -0.024892,0.060326 0.020857,0.1090239 0.1202807,0.1280294 0.2990514,0.1671616 0.3898994,0.085335 0.029069,-0.026185 0.043373,-0.022206 0.1079661,0.029982 0.118948,0.096094 0.2265467,0.1547203 0.2840005,0.1547203 0.03162,0 0.108004,-0.043906 0.1878211,-0.107957 0.073989,-0.059385 0.1425105,-0.107957 0.1522664,-0.107957 0.00976,0 0.079561,0.02859 0.1551199,0.063526 0.080999,0.03745 0.2068901,0.07293 0.3067471,0.086438 0.09315,0.012658 0.2097538,0.041501 0.2591172,0.064214 0.1130131,0.052007 0.1918215,0.054648 0.2797627,0.0094 z"
       id="path36" />
    <path
       style="fill:#ffccaa;fill-opacity:1;stroke:#ffffff;stroke-width:0.0408058"
       d="m 5.5934065,11.757178 c 0.1802737,-0.169404 0.3304007,-0.387987 0.428788,-0.624324 0.077266,-0.185601 0.1726697,-0.489988 0.1726697,-0.550907 0,-0.03794 0.1208052,-0.03938 3.3037416,-0.03938 2.8699332,0 3.3037452,0.0042 3.3037452,0.03128 0,0.04863 -0.102442,0.361097 -0.164305,0.501185 -0.140651,0.318534 -0.399131,0.60725 -0.650031,0.726093 l -0.146565,0.06942 -1.187619,0.01338 c -0.653192,0.0074 -2.0939032,0.01465 -3.2015818,0.01628 l -2.0139603,0.0027 z"
       id="path37" />
    <path
       style="fill:#ffccaa;fill-opacity:1;stroke:#ffffff;stroke-width:0.0408058"
       d="M 4.8615682,11.849804 C 4.5334919,11.747317 4.1844179,11.335883 4.0230786,10.861525 3.9258453,10.575647 3.904882,10.418538 3.6362171,7.9621907 3.3641868,5.4750748 3.12848,3.3704431 3.1061152,3.2289037 3.0816048,3.0737856 2.977608,2.7678966 2.8909945,2.5961636 2.8111025,2.4377579 2.6624786,2.2427192 2.5163472,2.1045144 L 2.3970646,1.991693 h 3.1144785 3.114479 l 0.092568,0.6747855 c 0.1386262,1.0104866 0.1962431,1.4650398 0.1966409,1.5513548 3.653e-4,0.078264 -0.021085,0.1160583 -0.2684748,0.4729963 -0.053508,0.077197 -0.097487,0.1490241 -0.097758,0.1596208 -2.441e-4,0.010669 -0.03783,0.078608 -0.08349,0.1511579 C 8.4198658,5.0741402 8.2873337,5.3326963 8.1710276,5.5761584 8.0547162,5.8196204 7.9376814,6.0576846 7.910958,6.1051893 7.8842309,6.152694 7.850795,6.2417178 7.8366539,6.30302 7.809746,6.4196389 7.8062921,6.4235268 7.4035239,6.7883021 7.3065434,6.8761325 7.293849,6.8973079 7.299943,6.9610514 7.3109738,7.0769289 7.3730898,7.0668565 7.5591049,6.919044 7.6474959,6.8487906 7.7694276,6.7472712 7.8300553,6.6934265 7.9854085,6.5554513 8.1764056,6.4684528 8.4081406,6.4301073 c 0.1068901,-0.017722 0.3298005,-0.056492 0.4953653,-0.086239 0.1655703,-0.029747 0.303088,-0.051881 0.3056052,-0.049205 0.00633,0.00687 0.5488196,4.0138467 0.5487166,4.0535807 -6.2e-5,0.02788 -0.071502,0.03239 -0.5129371,0.03239 -0.2820698,0 -1.1118957,0.0023 -1.8440593,0.0054 l -1.3312057,0.0054 -0.036609,0.167343 c -0.045089,0.20611 -0.1706661,0.532954 -0.2809218,0.731162 -0.1102138,0.198131 -0.3480739,0.434103 -0.5269855,0.5228 -0.1496335,0.07418 -0.2213741,0.0815 -0.3635555,0.03709 z M 8.9220955,9.8805071 c 0.1779211,-0.054304 0.1986391,-0.056293 0.3247824,-0.031212 0.1057509,0.021013 0.1577764,0.021194 0.2418183,8.065e-4 0.058897,-0.014286 0.1145754,-0.03264 0.1237437,-0.040778 C 9.6367799,9.7876966 9.3541297,9.599072 9.222348,9.5489995 9.0769587,9.4937552 8.9142148,9.4946051 8.7297946,9.5515312 8.617787,9.5861244 8.5514757,9.5939364 8.4522077,9.5842257 8.1109533,9.5508259 7.9309345,9.5448946 7.6990223,9.5593793 7.560595,9.5680593 7.452676,9.5837373 7.4591932,9.5942803 c 0.00651,0.010488 0.1037978,0.083273 0.2161653,0.1616281 l 0.2043154,0.1424595 0.2318508,-0.012839 c 0.1676498,-0.0094 0.2647406,-0.00434 0.3506125,0.017902 0.1740694,0.045262 0.2488074,0.041537 0.4599583,-0.022893 z M 6.2219967,5.4537113 c 0.1537619,-0.025082 0.3330875,-0.035027 0.58827,-0.032622 0.3232146,0.00307 0.3928875,-0.00289 0.583013,-0.049259 0.1187527,-0.028987 0.2819378,-0.059223 0.3626126,-0.067161 0.080669,-0.00796 0.1438341,-0.022405 0.1403622,-0.032134 -0.00344,-0.00977 -0.087993,-0.076564 -0.1878,-0.1485358 -0.2141636,-0.154431 -0.2605163,-0.160941 -0.5495427,-0.077179 -0.1650278,0.04783 -0.2212106,0.053273 -0.515252,0.05 -0.227354,-0.00253 -0.4072808,0.00832 -0.5783479,0.035082 C 5.709587,5.1874354 5.58846,5.1832039 5.406723,5.1088999 5.2403426,5.0408888 5.2269194,5.0402197 4.6077784,5.0688816 4.2699493,5.0844332 4.2083061,5.1030771 4.2083061,5.1891352 c 0,0.020995 0.040114,0.072496 0.089143,0.114467 0.1506244,0.1289336 0.373859,0.1471434 0.8342262,0.068102 0.1558288,-0.026763 0.1579319,-0.026474 0.3346929,0.045208 0.1514002,0.061411 0.2044181,0.072206 0.3561644,0.072514 0.098056,1.826e-4 0.2778193,-0.015913 0.3994719,-0.035714 z M 5.3158344,4.6152615 c 0.1030836,-0.041573 0.2067751,-0.07557 0.2304262,-0.07557 0.049971,0 0.1156369,-0.089042 0.1051649,-0.1425864 -0.00396,-0.020217 -0.054402,-0.069277 -0.1121107,-0.1090239 -0.1336316,-0.092062 -0.2250815,-0.093653 -0.4275504,-0.00741 -0.083725,0.035624 -0.1651742,0.064774 -0.1809947,0.064774 -0.015823,0 -0.1281162,-0.04859 -0.2495434,-0.107957 -0.1214272,-0.059385 -0.2475554,-0.107957 -0.2802832,-0.107957 -0.032727,0 -0.104843,0.019439 -0.1602537,0.043183 -0.055413,0.023761 -0.1294815,0.043183 -0.1645992,0.043183 -0.035118,0 -0.1019425,-0.019439 -0.1485014,-0.043183 -0.1065212,-0.05434 -0.1650242,-0.054774 -0.1935782,-0.00142 -0.055514,0.1037255 -0.00582,0.1711037 0.2225667,0.3017769 0.166214,0.0951 0.2788819,0.1055157 0.4686211,0.043309 0.1514472,-0.049657 0.1555557,-0.049856 0.2224174,-0.011031 0.2144829,0.1245936 0.3496205,0.1855848 0.4112075,0.1855848 0.038273,0 0.1539283,-0.034015 0.2570111,-0.07557 z M 5.9141531,3.4544308 C 6.0277322,3.3875048 6.04281,3.3844488 6.259643,3.3844488 c 0.1247003,0 0.3018454,-0.013924 0.3936562,-0.031139 0.1610476,-0.030036 0.1719518,-0.029367 0.3094437,0.019186 0.1180474,0.041682 0.1696751,0.048264 0.3007497,0.038355 0.170073,-0.012839 0.2485489,-0.041754 0.2485489,-0.091483 0,-0.017179 -0.065479,-0.0751 -0.1455159,-0.128807 -0.1303622,-0.087451 -0.1584093,-0.097631 -0.2691132,-0.097631 -0.072676,0 -0.1687348,-0.017721 -0.2331563,-0.043183 C 6.7334238,2.9981723 6.6029236,2.9952971 6.374913,3.0388958 6.2563231,3.0616084 6.1462784,3.0671418 6.0072458,3.057395 5.809982,3.0436517 5.8081863,3.0438325 5.6993975,3.1137062 5.61354,3.1688059 5.5748853,3.1813376 5.5199393,3.1718981 5.3377933,3.140596 5.0458822,3.0682087 4.9009009,3.0184075 4.6742031,2.9405229 4.5812749,2.9448629 4.4577459,3.039167 L 4.3583889,3.115008 4.2005311,3.028371 C 4.0337909,2.936852 3.9512091,2.9235967 3.8628161,2.974121 3.8331251,2.991119 3.7876641,3.005333 3.7617904,3.005749 3.7007194,3.0067436 3.6468841,3.061572 3.6468841,3.1227838 c 0,0.060091 0.092776,0.1513025 0.1990425,0.1956915 0.097091,0.040561 0.1611018,0.041989 0.2328193,0.00524 0.049331,-0.025298 0.065959,-0.019693 0.1929582,0.0651 0.1989919,0.1328396 0.2418539,0.1276135 0.4965454,-0.060687 l 0.063445,-0.046908 0.1471579,0.054521 c 0.080937,0.029982 0.2281106,0.071013 0.3270531,0.091176 0.098942,0.020163 0.2106868,0.050054 0.248321,0.06642 0.1163006,0.050597 0.2286207,0.038445 0.3599313,-0.038933 z"
       id="path38" />
    <path
       style="fill:#ffe6d5;fill-opacity:1;stroke:#ffffff;stroke-width:0.0408058"
       d="M 0.85323486,3.2279055 C 0.88584616,3.0923173 0.98034196,2.8541103 1.0736169,2.6723809 1.2671659,2.2952836 1.6149545,2.0132934 1.8864937,2.0132934 c 0.267017,0 0.6342014,0.2965436 0.8154789,0.6585902 0.092509,0.1847584 0.1878132,0.4268659 0.2188755,0.5560219 l 0.014286,0.059385 H 1.8870414 0.83895356 Z"
       id="path39" />
    <path
       style="fill:#ffe6d5;fill-opacity:1;stroke:#ffffff;stroke-width:0.0408058"
       d="m 5.635849,11.757225 c 0.1572863,-0.16293 0.2351312,-0.266625 0.3282723,-0.437307 0.077563,-0.142135 0.2523353,-0.620598 0.2523353,-0.690802 0,-0.0359 0.072903,-0.03921 1.2038142,-0.05472 1.2128038,-0.01664 5.3137962,6.47e-4 5.3356292,0.02248 0.02054,0.02054 -0.10642,0.382175 -0.19319,0.550288 -0.154214,0.298811 -0.409354,0.554955 -0.653739,0.656314 -0.09372,0.03888 -0.584926,0.04638 -4.3855027,0.06703 l -2.0075288,0.01085 z"
       id="path41" />
    <path
       style="fill:#ffe6d5;fill-opacity:1;stroke:none;stroke-width:0.0408058;stroke-opacity:1"
       d="M 4.7705501,11.772113 C 4.5180562,11.652664 4.2384769,11.313312 4.093563,10.950386 3.959312,10.614168 3.9615194,10.630374 3.582164,7.1956364 3.1294887,3.0970515 3.1408665,3.1889271 3.0537204,2.9284939 2.932229,2.5654221 2.8171257,2.371868 2.5704166,2.1157875 L 2.4715316,2.013147 5.5360099,2.018567 8.6004881,2.023997 8.7145934,2.8661267 C 8.8846668,4.1212796 8.8941967,4.2138785 8.8614479,4.2937287 8.846258,4.3307089 8.7594946,4.4715232 8.6685901,4.6066484 8.4853181,4.8790599 7.8540825,6.1110772 7.8118509,6.2787885 7.7846718,6.3867635 7.7575469,6.4188071 7.4418441,6.7161319 7.3086067,6.8416115 7.2745198,6.8863495 7.2745198,6.9356951 c 0,0.2054365 0.096438,0.1803261 0.4568697,-0.1189878 0.2421799,-0.2011129 0.3552961,-0.2685146 0.5373347,-0.320182 0.1328576,-0.037704 0.9043415,-0.1742864 0.9145893,-0.1619175 0.00615,0.00741 0.4670379,3.4005967 0.466631,3.4355878 -1.211e-4,0.00868 -0.051194,-0.023074 -0.1135447,-0.070651 C 9.2824278,9.505701 9.0304485,9.4410045 8.7910263,9.5081639 c -0.073545,0.020633 -0.2732325,0.028879 -0.7128941,0.029458 -0.5100254,6.655e-4 -0.6139426,0.00597 -0.6301723,0.032152 -0.010669,0.017179 -0.014647,0.03897 -0.00904,0.048282 0.00579,0.0094 0.1024597,0.081067 0.2148815,0.1594581 l 0.2044148,0.1425141 0.296531,0.00561 c 0.1630928,0.00307 0.3598404,0.013201 0.4372186,0.022279 0.1132916,0.013382 0.1721525,0.00796 0.3023031,-0.0283 0.1260583,-0.035063 0.2140225,-0.043942 0.3998532,-0.040344 0.1974944,0.0038 0.2483391,-0.00199 0.2972941,-0.033942 0.044901,-0.029295 0.061139,-0.031881 0.067704,-0.01085 0.011212,0.036058 0.055353,0.4059129 0.055353,0.4641899 v 0.04485 l -1.8228187,0.0076 c -1.0025517,0.0042 -1.8289243,0.01374 -1.8363866,0.02125 -0.00747,0.0074 -0.031913,0.09005 -0.054336,0.183542 -0.044161,0.184107 -0.1874335,0.557224 -0.2693343,0.701413 -0.1146713,0.201883 -0.351144,0.437159 -0.5341128,0.531409 -0.1326841,0.06835 -0.2573033,0.06344 -0.4269978,-0.01682 z M 6.2704392,5.4792068 c 0.1425141,-0.017179 0.4048704,-0.031519 0.5830139,-0.031845 0.2566954,-4.267e-4 0.3821353,-0.011935 0.6046063,-0.055299 0.1543947,-0.030109 0.318795,-0.061718 0.3653431,-0.070272 0.046546,-0.0085 0.088445,-0.027071 0.093111,-0.041175 C 7.9260973,5.251593 7.7151037,5.0768527 7.5938718,5.0134474 7.495734,4.9621091 7.3453465,4.9596136 7.198939,5.0069375 7.1264614,5.0303191 6.9592799,5.0472089 6.6903711,5.0582939 6.4700398,5.0673355 6.1493822,5.0917298 5.9777989,5.112399 5.6370296,5.1534479 5.6986561,5.1595962 5.2910085,5.0440443 5.1920714,5.0159972 5.112912,5.0145324 4.7447489,5.0339177 c -0.260431,0.013743 -0.4536105,0.033689 -0.4889031,0.050525 -0.1217075,0.058065 -0.065745,0.2110333 0.1099986,0.3006919 0.1247853,0.063653 0.3767808,0.075136 0.6755387,0.030778 l 0.2392774,-0.035534 0.1709916,0.064286 c 0.203019,0.076329 0.4028456,0.084774 0.8187837,0.034593 z M 5.3729263,4.6284026 C 5.5087062,4.5821818 5.6325851,4.5268832 5.6482141,4.5055088 5.6966411,4.439288 5.6809683,4.375219 5.5986552,4.3029493 5.4530705,4.1751188 5.3256203,4.1620085 5.1013861,4.2517737 5.0222755,4.2834375 4.9468683,4.3090976 4.9338122,4.3087902 4.9207561,4.3084846 4.8104157,4.26313 4.6886102,4.2080303 4.4410577,4.0960227 4.3796369,4.0888256 4.2025777,4.15105 4.0865682,4.1918277 4.0743602,4.1922979 3.9873953,4.1595491 3.8347691,4.1020806 3.7517369,4.0965109 3.7188057,4.1414659 c -0.03838,0.052496 -0.036355,0.1401271 0.00459,0.1985848 0.018331,0.026166 0.099559,0.086926 0.180507,0.1350276 0.187017,0.1111035 0.309533,0.1284815 0.5203125,0.073816 l 0.1530204,-0.039693 0.19881,0.1003078 c 0.1183096,0.059693 0.2294214,0.1008141 0.2744102,0.1015736 0.041581,6.962e-4 0.1866929,-0.036546 0.3224725,-0.082767 z M 5.9254996,3.4823025 c 0.102579,-0.050977 0.1577637,-0.064214 0.2693641,-0.064593 0.077196,-2.748e-4 0.2570791,-0.011935 0.3997418,-0.026058 0.2297065,-0.022622 0.271533,-0.021411 0.3655316,0.010669 0.2083063,0.070977 0.5555283,0.032423 0.5691847,-0.063219 C 7.5434268,3.2401497 7.2986971,3.0860786 7.0909766,3.0631744 7.0197105,3.0553986 6.9146107,3.0335178 6.8573917,3.0147293 6.7798145,2.9892681 6.7084399,2.9838974 6.5766812,2.9936443 6.4795054,3.0008776 6.2639616,3.0118722 6.0976943,3.0181652 5.8241325,3.0284726 5.7847767,3.0351634 5.6837461,3.0875868 5.5760404,3.1435002 5.5668758,3.1446575 5.4240932,3.1201728 5.3426897,3.1062487 5.1565179,3.0603715 5.010379,3.0183098 4.864241,2.9762482 4.7060994,2.9418358 4.6589548,2.9418358 c -0.085503,0 -0.1912995,0.041411 -0.2603978,0.1019352 C 4.365931,3.072343 4.345712,3.067514 4.2067164,2.997984 4.032336,2.9107507 3.9662847,2.9045662 3.8048004,2.9603711 3.6616407,3.0098469 3.6252862,3.0410224 3.6252862,3.1143319 c 0,0.080959 0.067405,0.1599825 0.1850701,0.2169393 0.081362,0.039385 0.1199769,0.045281 0.2216211,0.033761 0.1131812,-0.012839 0.1317545,-0.0085 0.2306809,0.054485 0.060062,0.038192 0.1483351,0.073056 0.1998229,0.078933 0.081771,0.0094 0.1087146,-4.086e-4 0.237524,-0.085859 0.1429625,-0.094847 0.1465014,-0.095896 0.2208664,-0.065353 0.1407836,0.057812 0.6795977,0.1939971 0.7779013,0.196612 0.068852,0.00181 0.1358269,-0.016275 0.2267274,-0.061501 z"
       id="path42" />
  </g>
</svg>
